<svg id="圖層_3" data-name="圖層 3" xmlns="http://www.w3.org/2000/svg" viewBox="0 0 2000 2000"><defs><style>.cls-1{fill:#f1868d;}.cls-2,.cls-5{fill:#fff;}.cls-3{fill:none;}.cls-3,.cls-4,.cls-5{stroke:#72718e;}.cls-3,.cls-5{stroke-linecap:round;stroke-linejoin:round;stroke-width:8px;}.cls-4,.cls-6{fill:#71798f;}.cls-4{stroke-miterlimit:10;stroke-width:6px;}.cls-6{font-size:188px;font-family:Ronde-B-Square-83pv-RKSJ-H, Ronde-B;}</style></defs><title>ele_load</title><circle class="cls-1" cx="1044.5" cy="1229.5" r="171.5"/><path class="cls-2" d="M1255.9,408.13c59.88,26.89,48.88,47.66,48.88,47.66s-17.11,2.44-29.33,29.33-39.1,111.2-79.43,133.19-80.65,48.88-88,90.43c0,0,0,2.24,0,6-23.17,17.05-52.6-19.49-52.6-19.49-59.87-110,10-181.27,10-181.27q1.73,2,3.4,4.08s44,40.33,91.64-24.44C1160.58,493.67,1196,381.25,1255.9,408.13Z"/><path class="cls-2" d="M986.78,1104.43a189.71,189.71,0,0,1-40.64-13.6h0c-10.6-5-19.8-11-26.5-17.51,19-47.57,42.52-101.76,36.88-129.95-4.23-21.13-19-84.35-40.2-121.73.32,0,5.13-.17,12.66-.16,24.29.06,76.83,2,97.2,16.8,16.54,12,54.37,35.63,79.33,60,15.58,15.22,26.14,30.73,23.31,43.89-4.52,21.08-19.23,73.22-37.87,113-11.62,24.82-24.75,44.82-37.89,49.51C1036.57,1110.55,1011.48,1109.82,986.78,1104.43Z"/><path class="cls-2" d="M1090.94,1055.15s45.2,159.49,35.43,183.93-52.55,48.88-103.87,31.77v-55s-10.37-89.67-35.72-111.43c24.7,5.39,49.79,6.12,66.27.23C1066.19,1100,1079.32,1080,1090.94,1055.15Z"/><path class="cls-1" d="M1112.93,785.73c4.88,30.54,7.33,78.2-7.34,112.42l-.09.1c-25-24.35-62.79-47.94-79.33-60-20.37-14.81-72.91-16.74-97.2-16.8,0,0-14-68.74-44.55-70S830.69,733.93,791,797.7h0a211.64,211.64,0,0,0-31.09,7.81l-.09-.24s15.35-31.1,31.19-78c84.95-20.54,166.77,18.09,166.77,18.09l14.67-94.09C948,615.87,816,633.16,816,633.16c1.85-9.68,3.49-19.54,4.84-29.51,14.67-107.54,102.65-121,102.65-121a103.28,103.28,0,0,1,10.42-3.47c21.22-6,71-14.91,113.42,17.56h0A121.18,121.18,0,0,1,1065.54,514s-69.92,71.29-10,181.27c0,0,29.43,36.54,52.6,19.49C1108.27,728.35,1109.11,761.88,1112.93,785.73Z"/><path class="cls-2" d="M1027.39,331.15c-6.08,17,19.67,163.94,20,165.61-42.38-32.47-92.2-23.58-113.42-17.56-23.79-70.68-25.08-89.4-14.09-132.17S1033.5,314,1027.39,331.15Z"/><path class="cls-2" d="M946.14,1090.83c.9,1.5,59.24,98.32,58,120.15-1.22,22-31.77,69.65-79.43,40.32,0,0-2.44-26.88-14.66-40.32s-68.79-87.69-68.6-89.67c9.56-.76,18.5-.76,18.5-.76s35.43,14.66,55-35.44c1.51-3.87,3.07-7.82,4.66-11.8,6.7,6.56,15.9,12.47,26.5,17.51Z"/><path class="cls-2" d="M972.4,651.31,957.73,745.4S875.91,706.77,791,727.31A717.28,717.28,0,0,0,816,633.16S948,615.87,972.4,651.31Z"/><path class="cls-2" d="M956.51,943.36c5.64,28.19-17.85,82.38-36.88,129.95-1.59,4-3.15,7.93-4.66,11.8-19.56,50.1-55,35.44-55,35.44s-8.94,0-18.5.76A115.82,115.82,0,0,0,828.2,1123c-12.22,2.45-14.66,48.88-14.66,48.88,2.31,62.34,37.33,23.27,41.21,18.75-4.6,6.75,22.33,31.35,22.33,31.35-19.55,42.77-86.76,26.89-86.76,26.89s-44-58.66-57.43-89.21a205.94,205.94,0,0,1-6.92-19.56c-3.83-12.23-8.25-27.92-12.75-44.71-4-14.75-8-30.33-11.72-45.16C691.82,1011.93,684,978.8,684,978.8s0-63,20.91-120.68c1.82-5,3.81-10,6-15,8-18.12,26.48-29.9,48.58-37.5l.39-.14A211.64,211.64,0,0,1,791,797.71c45.91-8.22,93.47-4.65,93.47-4.65,11.68.38,22.42,11.9,31.88,28.57h0C937.54,859,952.28,922.23,956.51,943.36Z"/><path class="cls-2" d="M929,821.47c-7.53,0-12.34.14-12.66.16h0c-9.46-16.67-20.2-28.19-31.88-28.57,0,0-47.56-3.57-93.47,4.65h0c39.74-63.77,62.92-47.41,93.47-46.19S929,821.47,929,821.47Z"/><path class="cls-2" d="M713.22,1095.38c4.5,16.79,8.92,32.48,12.75,44.71-10.58,29.3-27.3,34.23-27.3,34.23C687.68,1162.1,713.22,1095.38,713.22,1095.38Z"/><path class="cls-2" d="M701.5,1050.22s-4-.55-32.15-32.32-15.89-85.54-12.22-122.2,47.79-37.58,47.79-37.58C684,915.76,684,978.8,684,978.8S691.82,1011.93,701.5,1050.22Z"/><path class="cls-3" d="M854.75,1190.62c-3.88,4.52-38.9,43.59-41.21-18.75,0,0,2.44-46.43,14.66-48.88a115.82,115.82,0,0,1,13.28-1.68c9.56-.76,18.5-.76,18.5-.76s35.43,14.66,55-35.44c1.51-3.87,3.07-7.82,4.66-11.8,19-47.57,42.52-101.76,36.88-129.95-4.23-21.13-19-84.35-40.2-121.73"/><path class="cls-3" d="M916.3,821.63c-9.46-16.67-20.2-28.19-31.88-28.57,0,0-47.56-3.57-93.47,4.65a211.64,211.64,0,0,0-31.09,7.81l-.39.14c-22.1,7.6-40.61,19.38-48.58,37.5-2.16,4.91-4.15,9.91-6,15C684,915.76,684,978.8,684,978.8s7.81,33.13,17.49,71.42c3.74,14.83,7.76,30.41,11.72,45.16,4.5,16.79,8.92,32.48,12.75,44.71a205.94,205.94,0,0,0,6.92,19.56c13.44,30.55,57.43,89.21,57.43,89.21s67.21,15.88,86.76-26.89c0,0-26.93-24.6-22.33-31.35a.11.11,0,0,1,0,0l.31-.37"/><path class="cls-3" d="M1047.36,496.77A121.18,121.18,0,0,1,1065.54,514q1.73,2,3.4,4.08s44,40.33,91.64-24.44c0,0,35.44-112.42,95.32-85.54s48.88,47.66,48.88,47.66-17.11,2.44-29.33,29.33-39.1,111.2-79.43,133.19-80.65,48.88-88,90.43c0,0,0,2.24,0,6,.18,13.56,1,47.09,4.84,70.94,4.88,30.54,7.33,78.2-7.34,112.42"/><path class="cls-3" d="M759.77,805.28s15.35-31.1,31.19-78A717.28,717.28,0,0,0,816,633.16c1.85-9.68,3.49-19.54,4.84-29.51,14.67-107.54,102.65-121,102.65-121a103.28,103.28,0,0,1,10.42-3.47c21.22-6,71-14.91,113.42,17.56"/><path class="cls-3" d="M946.13,1090.82c-10.6-5-19.8-11-26.5-17.51"/><path class="cls-3" d="M916.3,821.63h0c.32,0,5.13-.17,12.66-.16,24.29.06,76.83,2,97.2,16.8,16.54,12,54.37,35.63,79.33,60,15.58,15.22,26.14,30.73,23.31,43.89-4.52,21.08-19.23,73.22-37.87,113-11.62,24.82-24.75,44.82-37.89,49.51-16.48,5.89-41.57,5.16-66.27-.23a189.71,189.71,0,0,1-40.64-13.6"/><path class="cls-3" d="M1090.94,1055.15s45.2,159.49,35.43,183.93-52.55,48.88-103.87,31.77v-55s-10.37-89.67-35.72-111.43h0"/><path class="cls-3" d="M946.13,1090.82h0c.9,1.5,59.24,98.32,58,120.15-1.22,22-31.77,69.65-79.43,40.32,0,0-2.44-26.88-14.66-40.32s-68.79-87.69-68.6-89.67"/><path class="cls-3" d="M704.92,858.12s-44.13.92-47.79,37.58-15.89,90.43,12.22,122.2,32.15,32.32,32.15,32.32"/><path class="cls-3" d="M1065.54,514s-69.92,71.29-10,181.27c0,0,29.43,36.54,52.6,19.49"/><path class="cls-3" d="M816,633.16S948,615.87,972.4,651.31"/><path class="cls-3" d="M972.4,651.31,957.73,745.4S875.91,706.77,791,727.31h0"/><path class="cls-3" d="M713.22,1095.38s-25.54,66.72-14.55,78.94c0,0,16.72-4.93,27.3-34.23"/><path class="cls-3" d="M929,821.47s-14-68.74-44.55-70S830.69,733.93,791,797.7"/><path class="cls-3" d="M1047.36,496.77h0c-.3-1.67-26-148.6-20-165.61S930.85,304.26,919.85,347s-9.7,61.49,14.09,132.17"/><path class="cls-4" d="M849,1032.57s18.94-1,18.94,15.27c0,13.44-16.5,16.5-16.5,16.5s-18.33,1.22-17.11-13.44S849,1032.57,849,1032.57Z"/><path class="cls-5" d="M883.19,1079s-33,12.22-25.66,31.77,30.55,20.78,35.44,40.33,34.21,51.66,25.66-19.55C911.3,1070.45,883.19,1079,883.19,1079Z"/><path class="cls-5" d="M980.28,473.44s48.94-68.36,24.5-87.91c0,0-6.11-9.78-13.44,12.21s-30.42,72.6-63.48,83.35C927.86,481.09,972.88,473.37,980.28,473.44Z"/><text class="cls-6" transform="translate(740.24 1671.97)">Loading...</text></svg>